<svg viewBox="0 0 512 512" xmlns="http://www.w3.org/2000/svg">
	<style>
		.bg { fill: #ffffff; }
		.fg { fill: #1C1B1F; }

		@media (prefers-color-scheme: dark) {
			.bg { fill: #0d1117; }
			.fg { fill: #ffffff; }
		}
	</style>
	<rect class="bg" width="512" height="512" rx="16" />
	<path class="fg" d="M134.672 411.601C131.189 411.601 127.705 411.205 124.222 410.413C120.739 409.622 117.255 408.751 113.772 407.801C111.239 407.167 108.705 406.217 106.172 404.951C103.639 403.684 101.422 404.001 99.5219 405.901C96.0385 409.384 92.001 411.205 87.4094 411.363C82.8177 411.522 78.7802 409.859 75.2969 406.376C71.8135 402.892 69.9927 398.855 69.8344 394.263C69.676 389.672 71.3385 385.634 74.8219 382.151C80.8385 375.817 88.1219 372.492 96.6719 372.176C105.222 371.859 113.772 372.809 122.322 375.026C124.855 375.659 127.389 376.609 129.922 377.876C132.455 379.142 134.672 378.826 136.572 376.926C138.789 374.709 139.184 372.176 137.759 369.326C136.334 366.476 135.305 363.626 134.672 360.776C132.455 352.226 131.584 343.676 132.059 335.126C132.534 326.576 135.78 319.134 141.797 312.801C147.814 306.467 155.097 303.063 163.647 302.588C172.197 302.113 180.747 302.984 189.297 305.201C191.83 305.834 194.364 306.863 196.897 308.288C199.43 309.713 201.647 309.476 203.547 307.576C205.764 305.359 206.159 302.826 204.734 299.976C203.309 297.126 202.28 294.276 201.647 291.426C199.43 282.876 198.48 274.247 198.797 265.538C199.114 256.83 202.28 249.309 208.297 242.976C214.314 236.642 221.676 233.238 230.384 232.763C239.093 232.288 247.722 233.159 256.272 235.376C258.805 236.009 261.339 237.038 263.872 238.463C266.405 239.888 268.622 239.651 270.522 237.751C272.739 235.534 273.134 233.001 271.709 230.151C270.284 227.301 269.255 224.451 268.622 221.601C266.405 213.051 265.455 204.422 265.772 195.713C266.089 187.005 269.255 179.484 275.272 173.151C281.289 166.817 288.651 163.492 297.359 163.176C306.068 162.859 314.697 163.809 323.247 166.026C325.78 166.659 328.314 167.609 330.847 168.876C333.38 170.142 335.597 169.826 337.497 167.926C339.714 165.709 340.189 163.176 338.922 160.326C337.655 157.476 336.705 154.626 336.072 151.776C333.855 143.226 332.984 134.676 333.459 126.126C333.934 117.576 337.18 110.134 343.197 103.801C349.214 97.4674 356.497 94.0633 365.047 93.5883C373.597 93.1133 382.147 93.9841 390.697 96.2008C393.23 96.8341 395.843 97.7841 398.534 99.0508C401.226 100.317 403.522 100.001 405.422 98.1008C408.905 94.6174 412.864 92.8758 417.297 92.8758C421.73 92.8758 425.689 94.6174 429.172 98.1008C432.655 101.584 434.476 105.542 434.634 109.976C434.793 114.409 433.13 118.367 429.647 121.851C423.63 128.184 416.268 131.588 407.559 132.063C398.851 132.538 390.38 131.667 382.147 129.451C379.614 128.817 377.001 127.788 374.309 126.363C371.618 124.938 369.322 125.176 367.422 127.076C365.205 129.292 364.809 131.826 366.234 134.676C367.659 137.526 368.689 140.534 369.322 143.701C371.539 152.251 372.409 160.801 371.934 169.351C371.459 177.901 368.214 185.342 362.197 191.676C356.18 198.009 348.818 201.413 340.109 201.888C331.401 202.363 322.93 201.492 314.697 199.276C312.164 198.642 309.551 197.613 306.859 196.188C304.168 194.763 301.872 195.001 299.972 196.901C297.755 199.117 297.359 201.651 298.784 204.501C300.209 207.351 301.239 210.201 301.872 213.051C304.089 221.601 305.039 230.23 304.722 238.938C304.405 247.647 301.239 255.167 295.222 261.501C289.205 267.834 281.843 271.238 273.134 271.713C264.426 272.188 255.797 271.317 247.247 269.101C244.714 268.467 242.18 267.438 239.647 266.013C237.114 264.588 234.897 264.826 232.997 266.726C230.78 268.942 230.384 271.476 231.809 274.326C233.234 277.176 234.264 280.026 234.897 282.876C237.114 291.426 237.984 300.055 237.509 308.763C237.034 317.472 233.789 324.992 227.772 331.326C221.755 337.659 214.472 340.984 205.922 341.301C197.372 341.617 188.822 340.667 180.272 338.451C177.739 337.817 175.205 336.867 172.672 335.601C170.139 334.334 167.922 334.651 166.022 336.551C163.805 338.767 163.409 341.301 164.834 344.151C166.259 347.001 167.289 349.851 167.922 352.701C170.139 361.251 171.009 369.801 170.534 378.351C170.059 386.901 166.814 394.342 160.797 400.676C157.314 404.159 153.355 406.851 148.922 408.751C144.489 410.651 139.739 411.601 134.672 411.601ZM137.997 229.201C112.664 229.201 91.1302 220.334 73.3969 202.601C55.6635 184.867 46.7969 163.334 46.7969 138.001C46.7969 112.667 55.6635 91.1341 73.3969 73.4008C91.1302 55.6674 112.664 46.8008 137.997 46.8008C163.33 46.8008 184.864 55.6674 202.597 73.4008C220.33 91.1341 229.197 112.667 229.197 138.001C229.197 163.334 220.33 184.867 202.597 202.601C184.864 220.334 163.33 229.201 137.997 229.201ZM137.997 195.001C153.83 195.001 167.289 189.459 178.372 178.376C189.455 167.292 194.997 153.834 194.997 138.001C194.997 122.167 189.455 108.709 178.372 97.6258C167.289 86.5424 153.83 81.0008 137.997 81.0008C122.164 81.0008 108.705 86.5424 97.6219 97.6258C86.5385 108.709 80.9969 122.167 80.9969 138.001C80.9969 153.834 86.5385 167.292 97.6219 178.376C108.705 189.459 122.164 195.001 137.997 195.001ZM331.797 457.201C322.297 457.201 314.222 453.876 307.572 447.226C300.922 440.576 297.597 432.501 297.597 423.001V331.801C297.597 322.301 300.922 314.226 307.572 307.576C314.222 300.926 322.297 297.601 331.797 297.601H422.997C432.497 297.601 440.572 300.926 447.222 307.576C453.872 314.226 457.197 322.301 457.197 331.801V423.001C457.197 432.501 453.872 440.576 447.222 447.226C440.572 453.876 432.497 457.201 422.997 457.201H331.797ZM331.797 423.001H422.997V331.801H331.797V423.001Z" />
</svg>
